<svg xmlns="http://www.w3.org/2000/svg" viewBox="0 0 296.92 238.6"><defs><style>.cls-1{fill:#fff;}.cls-1,.cls-2,.cls-3,.cls-4,.cls-5{stroke:#333;stroke-miterlimit:10;}.cls-2{fill:#ccc;}.cls-3{fill:#ad0000;}.cls-4{fill:#000090;}</style></defs><title>Fichier 1</title><g id="Calque_2" data-name="Calque 2"><g id="Astronaute"><g id="Jambes_bassin" data-name="Jambes + bassin"><path class="cls-1" d="M216,43.35s19,5,16-26-39-12-30,0S214,34.35,216,43.35Z"/><path class="cls-1" d="M188,58.35s-3-2,28-15c0,0,2-5-14-26,0,0-37,3-41,17C161,34.35,183,43.35,188,58.35Z"/><path class="cls-1" d="M175,71.35s7.66-9.19,12.25-12.16a2,2,0,0,0,.63-2.72C184.9,51.85,176.11,39.93,161,34.35c0,0-14,6-14,12C147,46.35,174,57.35,175,71.35Z"/><path class="cls-1" d="M172,80.35c.14-1.88.7-6,2.95-9,0,0,0-13-28-25,0,0-15,15-14,22,.91,6.32,32,11.83,38,12.83A.9.9,0,0,0,172,80.35Z"/><path class="cls-1" d="M171.62,87.31a9.42,9.42,0,0,1-.37-4.66,1.26,1.26,0,0,0-1-1.59C163,79.78,134.71,74.44,133,68.35c0,0-6,4-4,10,1.85,5.55,34.58,10.25,41.79,10.12A.9.9,0,0,0,171.62,87.31Z"/><path class="cls-1" d="M181.89,106.81c-3.16-1.69-12-7.45-10.06-17.81a.56.56,0,0,0-.51-.69c-5-.31-36.82-2.59-42.35-10,0,0-6,12-5,14s32,10,35,53c0,0,10,1,11,0s8.13-30.42,12.3-37.07A1,1,0,0,0,181.89,106.81Z"/><path class="cls-1" d="M187,110l-5-1.68-12,37s0,7,2,8,7,1,10-1c0,0-3.89-18.48,5.6-41.06A.94.94,0,0,0,187,110Z"/><path class="cls-1" d="M207,110.51c-3.45.55-15.21,2.23-18.58.19a.46.46,0,0,0-.68.23c-1.46,3.84-9.42,25.94-5.78,41.42,0,0,26,2,34,0,0,0,4.91-9.81-7.63-41.08A1.23,1.23,0,0,0,207,110.51Z"/><path class="cls-1" d="M221,108.35s-7.09,3.54-12.09,2.29a.45.45,0,0,0-.53.61c2.11,5.08,12.11,30.33,7.62,41.1,0,0,10.42,0,16.7-2.43a1.86,1.86,0,0,0,1.17-1.94C233.24,142.54,230.44,122.11,221,108.35Z"/><path class="cls-1" d="M246.74,95.63c-1.18,1.36-7.12,7.28-25.06,12.52a.56.56,0,0,0-.34.81c2,3.36,11.42,20.14,12.58,39.42a.55.55,0,0,0,.85.44c4.94-3.28,31.2-20.87,35.12-27.33a.58.58,0,0,0,.08-.31c-.07-1.83-1.29-18.1-22.62-25.7A.56.56,0,0,0,246.74,95.63Z"/><path class="cls-1" d="M247,95.35s5-22,37,2-7,26-14,24C270,121.35,271,105.35,247,95.35Z"/></g><g id="Torse_épaules" data-name="Torse+épaules"><path class="cls-1" d="M85.55,96.84c3.57-3.07,23-19.14,42.14-20.92a1,1,0,0,1,1,.8l.21,1.33a.84.84,0,0,1-.08.56c-.78,1.6-4.81,9.92-5,12.93a.92.92,0,0,1-.83.85c-2.83.36-12.25,2.88-31.88,19.93a1,1,0,0,1-1.54-.48C88.82,108.59,86.87,101,85.34,98A.93.93,0,0,1,85.55,96.84Z"/><path class="cls-1" d="M139,180.35s20-9,33-27a15.39,15.39,0,0,1-2-8s-8,1-11,0c0,0-14.7,17.65-33.44,26.73a.19.19,0,0,0,0,.36C127.67,172.8,134.75,174.44,139,180.35Z"/><path class="cls-1" d="M85.09,185.38c1.91.44,26.83,5.1,73.88-40,0,0,1-37-35-53,0,0-9-1-41,26s-25,25-15,27S91.89,172.21,85,185.24A.1.1,0,0,0,85.09,185.38Z"/><path class="cls-1" d="M74.87,149.62s19.14.25,10.93,18.61a.12.12,0,0,1-.23,0C85.27,166.4,83.52,158.6,74.87,149.62Z"/><g id="Boutons"><circle class="cls-2" cx="106.97" cy="136.35" r="6"/><circle class="cls-3" cx="129.97" cy="120.35" r="6"/><circle class="cls-3" cx="144.97" cy="142.35" r="6"/><circle class="cls-4" cx="121.97" cy="158.35" r="6"/></g><path class="cls-1" d="M59.48,141.92c0-1.51,2-7.61,27.2-26.66,0,0-29.71,4.09-32.71,13.09-2.93,8.79-1.84,12.81,5.11,13.92A.34.34,0,0,0,59.48,141.92Z"/><path class="cls-1" d="M85,185.36c.88.22,13.3,3,35.7-10.26,0,0,.25,8.25-6.75,11.25s-20,19-29-.95C85,185.38,85,185.36,85,185.36Z"/><path class="cls-1" d="M52,115.35s4.8,4.21,5.9,8.6c0,0-3.53,2.45-3.71,3.93S48,140.35,59,142.35c0,0,3,4-2,7a28.57,28.57,0,0,0-14,0S34,128.35,52,115.35Z"/><path class="cls-1" d="M78,187.35s2,1,7-2c0,0,3.89-8.25,1-15.63s-3.26-13.21-13.6-22.29a21.51,21.51,0,0,0-8.86-2.89s-4.11-.69-3.8-1.94c0,0,1.31,4.75-2.69,6.75C57,149.35,84,159.35,78,187.35Z"/><path class="cls-1" d="M109,202.35s-7.57-5.73-8.79-7.86a8.51,8.51,0,0,1-9.53-1.17c-4.68-4-5.68-8-5.68-8s-5,3-7,2c0,0-1,6-3,7S87,217.35,109,202.35Z"/></g><g id="Casque"><path class="cls-1" d="M43,149.35s-39,14-18,46c20,30.5,50.93,2,50.33-.79a1.06,1.06,0,0,1,.3-.9,9,9,0,0,0,1.93-4.27c.44-3,2.14-10.21.79-15.63S75,157.35,57,149.35C57,149.35,49,147.35,43,149.35Z"/><path class="cls-5" d="M38,159.35s-9,5-3,16a117.44,117.44,0,0,0,13,19s6,11,18,2,10-22,2-34S46,152.35,38,159.35Z"/></g><path id="Antenne" class="cls-1" d="M40.72,135.68,4,154.35s-5,2-3,6,10,0,10,0l30.4-16.62A30.67,30.67,0,0,1,40.72,135.68Z"/><g id="Bras_G" data-name="Bras G"><path class="cls-1" d="M109,202.35l-8.55-7.6a.39.39,0,0,1,.1-.65c2-.9,8.88-4.09,10.06-5.78,1.39-2,3.89-2.23,4.64-2.6s4.75-2.37,5.75-10.37l2.94-2.2a3,3,0,0,1,2.47-.55c2.73.59,8.81,2.45,12.59,7.75,0,0,4,4,3,5,0,0-13.56,4.84-12.08,18.34a.65.65,0,0,1-.57.73C126.27,204.74,113.37,205.86,109,202.35Z"/><path class="cls-1" d="M145.93,187c.88-.33.49-1.76-.44-1.87a11.09,11.09,0,0,0-3.52.22c-4.77,1-13.19,8.29-12.2,17.65,0,.52.81.79,1,.32C132.64,199.47,140.57,189,145.93,187Z"/><path class="cls-1" d="M130,204.35s11.49,22,25.1,19.22a1.7,1.7,0,0,0,1.35-1.43c.25-1.81-.75-5.5-10.12-10.15a3.46,3.46,0,0,1-1.86-2.38c-.5-2.36-.35-6.21,6.23-5.46a3.67,3.67,0,0,1,2.11,1c2.67,2.65,11.33,10.52,17.19,7.17,0,0,2.71-1.8,7.26.58a.25.25,0,0,0,.34-.34c-2.5-4.55-16.14-28.15-30.6-27.24C146.13,184.49,128.27,202.63,130,204.35Z"/><path class="cls-1" d="M188,225.35s1.51-4.77-11.74-12.89a7.22,7.22,0,0,0-7.38.39c-3.88,2.5-13.88-4.5-15.88-7.5s-11.06-2.11-8,5.44c0,0,.12.56,2.07,1.56s9.93,5.83,9.44,9.41A12.42,12.42,0,0,0,167,219.35s9-2,8,5c0,0,8-5,8,3C183,227.35,186,224.35,188,225.35Z"/><path class="cls-1" d="M154.47,223.82s2.47-.84,2-2.66c0,0,3.2,2.9,9.57-1.18a5.65,5.65,0,0,1,2.58-.86c2.44-.18,6.73.12,6.42,4.65a1.47,1.47,0,0,1-.49,1c-2,1.87-10.43,9.34-16.57,7.59C151,230.35,154.47,223.82,154.47,223.82Z"/><path class="cls-1" d="M183,227.35s1-8-8-3c0,0-7,6.64-9.49,6.82,0,0-2.51,13.18,11.49,3.18C177,234.35,183,229.35,183,227.35Z"/><path class="cls-1" d="M191,227.35s0-2-3-2a5.88,5.88,0,0,0-5,2s-3,5-6,7c0,0,2,8,10,0C187,234.35,191,230.35,191,227.35Z"/><path class="cls-1" d="M194,227.35s-2,.1-4,3.05-1,5.95,1,5.95S200,229.35,194,227.35Z"/></g><g id="Bras_D" data-name="Bras D"><path class="cls-1" d="M57,121.63s-9.72-15.84,7.28-27.78a5.21,5.21,0,0,1,1.74-.8,19.88,19.88,0,0,1,17.66,4.07,6.89,6.89,0,0,1,1.9,2.68c1.14,2.93,3.66,9.49,4.42,12.55l-2.3,2.3a3,3,0,0,1-1.68.84l-4.63.67s-19.18,4.33-21.78,6.76C59.58,122.92,58,124.92,57,121.63Z"/><path class="cls-1" d="M65.44,82.77c-.83,2.46-2.14,7.53-.16,10.52,0,0,9.69-3.94,19.69,5.06,0,0,2-3,1-5s-7.41-13.9-18.48-12.3A2.57,2.57,0,0,0,65.44,82.77Z"/><path class="cls-1" d="M74,57.35S61.49,70.88,66.23,81.61c0,0,10.74-5.26,19.74,11.74,0,0,19-16,9-36C95,57.35,86,43.35,74,57.35Z"/><path class="cls-1" d="M103,41.35s1,11-8,16c0,0-8.45-12.79-19.72-1.39,0,0-3.8-3.32-4.34-6.76a6.15,6.15,0,0,0-1.79-3.52c-2.85-2.75-7.53-8.14-3.15-10.33,0,0,4-3,12,5,0,0-4-11,0-10s7,3,10,10,6,4,6,1S100,29.35,103,41.35Z"/></g></g></g></svg>